<?xml version="1.0" encoding="UTF-8" standalone="no"?>
<svg
   xmlns:dc="http://purl.org/dc/elements/1.1/"
   xmlns:cc="http://creativecommons.org/ns#"
   xmlns:rdf="http://www.w3.org/1999/02/22-rdf-syntax-ns#"
   xmlns:svg="http://www.w3.org/2000/svg"
   xmlns="http://www.w3.org/2000/svg"
   xmlns:sodipodi="http://sodipodi.sourceforge.net/DTD/sodipodi-0.dtd"
   xmlns:inkscape="http://www.inkscape.org/namespaces/inkscape"
   width="110.54209mm"
   height="17.896582mm"
   viewBox="0 0 110.54209 17.896582"
   version="1.1"
   id="svg2518"
   inkscape:version="1.0.1 (3bc2e813f5, 2020-09-07)"
   sodipodi:docname="wutan_logo_text.svg">
  <defs
     id="defs2512" />
  <sodipodi:namedview
     id="base"
     pagecolor="#ffffff"
     bordercolor="#666666"
     borderopacity="1.0"
     inkscape:pageopacity="0.0"
     inkscape:pageshadow="2"
     inkscape:zoom="1.4"
     inkscape:cx="219.36965"
     inkscape:cy="78.462295"
     inkscape:document-units="mm"
     inkscape:current-layer="layer1"
     inkscape:document-rotation="0"
     showgrid="false"
     fit-margin-top="0"
     fit-margin-left="0"
     fit-margin-right="0"
     fit-margin-bottom="0"
     inkscape:window-width="1431"
     inkscape:window-height="1208"
     inkscape:window-x="320"
     inkscape:window-y="320"
     inkscape:window-maximized="0" />
  <metadata
     id="metadata2515">
    <rdf:RDF>
      <cc:Work
         rdf:about="">
        <dc:format>image/svg+xml</dc:format>
        <dc:type
           rdf:resource="http://purl.org/dc/dcmitype/StillImage" />
        <dc:title></dc:title>
      </cc:Work>
    </rdf:RDF>
  </metadata>
  <g
     inkscape:label="Layer 1"
     inkscape:groupmode="layer"
     id="layer1"
     transform="translate(3.1103297,-42.456469)">
    <g
       aria-label="Wutan Bath"
       id="text1609"
       style="font-size:25.4px;line-height:1.25;font-family:Livingstone;-inkscape-font-specification:Livingstone;stroke-width:0.264583">
      <path
         d="m -3.085525,44.15559 -0.024805,-0.508496 1.1658203,0.04961 q 1.66191405,0.04961 2.10839842,0.04961 1.42626948,0 2.15800778,-0.04961 h 0.8929687 l 0.049609,0.483691 q -0.7317383,0.04961 -1.3890625,0.297656 -0.6449218,0.248047 -0.6449218,0.694531 0,0.47129 0.9425781,3.187403 0.9549804,2.703711 2.0339843,5.531445 1.0914063,2.815332 1.1658203,2.939355 l 0.5084961,-1.32705 q 0.074414,-0.148828 0.396875,-0.942578 0.3348633,-0.79375 0.5084961,-1.21543 L 8.9447483,48.521215 Q 8.0021702,46.338403 7.7169163,45.718286 7.4440647,45.085766 7.2952366,44.912133 6.8363499,44.279614 5.9061741,44.230004 l -0.049609,-0.508496 q 0.8433594,0.04961 1.7239258,0.04961 2.2572265,0 4.0679685,-0.124024 l 0.0248,0.434082 q -0.880567,0.09922 -1.302246,0.272852 -0.4216799,0.173633 -0.5208987,0.359668 -0.086816,0.173633 -0.086816,0.434082 0,0.421679 0.7813481,2.778125 0.79375,2.356445 1.872753,5.258593 1.091407,2.902149 1.438672,3.695899 0.917774,-2.269629 1.810742,-4.750098 0.905372,-2.480469 1.42627,-4.204394 0.520898,-1.723926 0.520898,-2.244824 0,-1.00459 -0.694531,-1.265039 -0.694531,-0.272852 -1.699121,-0.310059 l -0.09922,-0.409277 h 1.327051 q 1.661914,0.03721 3.708301,-0.0248 l 0.992187,-0.02481 -0.03721,0.434082 q -0.768945,0.07441 -1.277441,0.409278 -0.496094,0.334863 -0.930176,1.128613 -0.434082,0.79375 -0.992187,2.319238 l -2.455664,6.833691 q -0.620118,1.674317 -0.744141,1.959571 -0.248047,0.620117 -0.409277,1.091406 -0.161231,0.471289 -0.372071,1.091406 -0.210839,0.620117 -0.483691,1.438672 l -0.384473,-0.02481 Q 12.715061,59.286449 12.367795,58.195043 12.020529,57.103637 11.76008,56.322289 11.499631,55.528539 11.363205,55.181274 L 9.2796115,49.463793 Q 9.1059787,49.835864 8.8331272,50.431176 8.5602756,51.026489 8.4114475,51.311743 L 7.0967991,54.288305 Q 6.6007053,55.392114 6.2534397,56.322289 5.9185764,57.252465 5.5341038,58.381078 5.1620335,59.509692 4.8891819,60.353051 H 4.5543186 L 3.1032444,56.173461 Q 2.7931859,55.218481 2.3094945,53.817016 1.8382054,52.403149 1.1932835,50.592407 0.56076401,48.781664 0.0150609,47.392602 -0.51823988,46.003539 -0.82829847,45.445434 -1.2747828,44.602075 -1.820486,44.378832 -2.3537867,44.15559 -3.085525,44.15559 Z"
         style="font-style:normal;font-variant:normal;font-weight:normal;font-stretch:normal;font-size:25.4px;font-family:Centaur;-inkscape-font-specification:Centaur;stroke-width:0.264583"
         id="path3089" />
      <path
         d="m 19.288303,52.080688 v -0.508496 l 2.75332,-1.525489 0.248047,-0.09922 q 0.173633,0 0.173633,0.223242 l -0.148828,2.133203 q -0.148828,2.530078 -0.148828,3.125391 0,1.401464 0.37207,2.33164 0.37207,0.917774 1.736328,0.917774 0.434082,0 0.892969,-0.136426 0.471289,-0.148828 1.079004,-0.434082 0.620117,-0.297656 0.967383,-0.471289 0,-0.930176 0.03721,-1.21543 l 0.07441,-2.54248 q 0.03721,-1.153418 -0.07441,-1.624707 -0.111621,-0.483692 -0.434082,-0.620118 -0.310059,-0.136425 -1.041797,-0.16123 l -0.02481,-0.458887 3.299024,-0.768945 q -0.06201,1.116211 -0.136426,2.133203 -0.06201,1.00459 -0.124024,2.158008 -0.04961,1.153418 -0.04961,1.711523 0,1.810742 0.235644,2.530078 0.644922,-0.0248 1.389063,-0.297656 v 0.558106 q -1.401465,0.384472 -2.840137,0.917773 -0.21084,-0.694531 -0.334863,-1.761133 -3.038574,1.550293 -4.216797,1.550293 -0.79375,0 -1.5875,-0.756543 -0.79375,-0.756543 -0.719336,-2.926953 l 0.09922,-2.790527 q 0.0248,-0.744141 -0.06201,-1.128613 -0.07441,-0.396875 -0.471289,-0.396875 -0.223242,0 -0.942578,0.334863 z"
         style="font-style:normal;font-variant:normal;font-weight:normal;font-stretch:normal;font-size:25.4px;font-family:Centaur;-inkscape-font-specification:Centaur;stroke-width:0.264583"
         id="path3091" />
      <path
         d="m 32.471996,56.037035 0.06201,-4.824511 q -0.570508,-0.07441 -1.327051,-0.07441 0.02481,-0.09922 0.02481,-0.310059 1.079004,-0.657324 1.686718,-1.252637 0.607715,-0.595312 1.438672,-1.686718 l -0.124023,2.232422 q 1.066601,0.09922 2.33164,0.09922 0.607715,0 1.327051,-0.0248 l -0.02481,0.768945 q -0.644921,0.07441 -1.32705,0.07441 -0.06201,0 -0.483692,-0.0124 -0.421679,-0.02481 -1.314648,-0.06201 -0.235645,0 -0.359668,0.04961 -0.111621,0.03721 -0.161231,0.161231 -0.03721,0.124023 -0.06201,0.471289 -0.0124,0.347265 -0.02481,0.731738 l -0.06201,3.869531 q -0.0248,1.116211 0.248047,1.847949 0.285254,0.719336 1.351856,0.719336 0.409277,0 1.00459,-0.173632 0.607714,-0.186036 1.389062,-0.545704 0.02481,0.09922 0.02481,0.148829 0.0124,0.04961 0.0248,0.111621 -0.434082,0.471289 -1.599902,0.930175 -1.153418,0.458887 -2.083594,0.458887 -0.806152,0 -1.389062,-0.545703 -0.570508,-0.558105 -0.570508,-1.909961 z"
         style="font-style:normal;font-variant:normal;font-weight:normal;font-stretch:normal;font-size:25.4px;font-family:Centaur;-inkscape-font-specification:Centaur;stroke-width:0.264583"
         id="path3093" />
      <path
         d="m 41.141232,52.279125 -1.525488,0.682129 q -0.09922,-0.396875 -0.09922,-0.58291 0,-0.632519 0.768945,-1.16582 0.781348,-0.545703 1.748731,-0.880567 0.979785,-0.334863 1.364258,-0.334863 0.334863,0 0.830957,0.297656 0.496093,0.297657 0.79375,0.595313 0.260449,0.248047 0.396875,0.496094 0.148828,0.235644 0.260449,0.756543 0.111621,0.520898 0.111621,1.32705 0,0.235645 -0.06201,1.661914 l -0.04961,0.930176 q -0.04961,0.669727 -0.04961,1.066602 0,0.508496 0.136426,1.091406 0.124024,0.595312 0.558106,0.595312 0.483691,0 1.289843,-0.359668 v 0.508497 l -1.823144,0.731738 q -0.545703,0.186035 -0.620117,0.186035 -0.285254,0 -0.570508,-0.37207 -0.272852,-0.384473 -0.446484,-0.905371 -2.294434,1.277441 -3.522266,1.277441 -0.756543,0 -1.141016,-0.434082 -0.384472,-0.446484 -0.384472,-1.327051 0,-0.843359 0.198437,-1.252637 0.21084,-0.409277 0.669727,-0.644921 0.930175,-0.471289 1.971972,-0.694532 1.041797,-0.235644 2.182813,-0.396875 l 0.06201,-1.525488 v -0.409277 q 0,-1.054199 -0.607715,-1.661914 -0.595313,-0.620117 -1.401465,-0.620117 -0.384473,0 -0.781348,0.223242 -0.384472,0.21084 -0.384472,0.607715 0,0.198437 0.124023,0.5333 z m 2.939355,5.866309 q -0.03721,-0.409278 0.07442,-2.331641 -1.63711,-0.111621 -2.629297,0.396875 -0.992188,0.508496 -0.992188,1.277442 0,0.558105 0.297656,1.054199 0.310059,0.496094 0.84336,0.496094 0.595312,0 2.406054,-0.892969 z"
         style="font-style:normal;font-variant:normal;font-weight:normal;font-stretch:normal;font-size:25.4px;font-family:Centaur;-inkscape-font-specification:Centaur;stroke-width:0.264583"
         id="path3095" />
      <path
         d="m 48.074144,59.422875 -0.0248,-0.359668 q 0.669727,-0.124023 0.979785,-0.260449 0.310059,-0.136426 0.409278,-0.310059 0.09922,-0.173632 0.136425,-0.471289 0.09922,-0.682129 0.136426,-1.674316 0.03721,-0.992187 0.03721,-2.00918 0,-1.413867 -0.09922,-1.922363 -0.08682,-0.520898 -0.396875,-0.657324 -0.297656,-0.148828 -1.128613,-0.235645 0,-0.16123 -0.02481,-0.235644 0.533301,-0.136426 1.413868,-0.520899 0.892968,-0.396875 0.942578,-0.446484 0.471289,-0.248047 0.558105,-0.248047 0.186035,0 0.235645,0.359668 0.04961,0.359668 0.04961,1.190625 1.364258,-0.768945 2.244824,-1.091406 0.880567,-0.334863 1.686719,-0.334863 1.203027,0 1.74873,0.5333 0.558106,0.520899 0.682129,1.277442 0.136426,0.74414 0.136426,1.971972 v 2.951758 q 0,1.748731 0.161231,1.909961 0.08682,0.08682 0.632519,0.21084 0.545703,0.124023 0.63252,0.16123 l 0.0248,0.384473 Q 58.31848,59.44768 57.090648,59.44768 q -1.041797,0 -2.492872,0.148828 V 59.23684 q 1.128614,-0.223242 1.401465,-0.706934 0.186035,-0.409277 0.248047,-1.723925 0.07441,-1.327051 0.07441,-2.058789 0,-1.091407 -0.09922,-1.785938 -0.08682,-0.706933 -0.508496,-1.203027 -0.421679,-0.496094 -1.314648,-0.496094 -0.396875,0 -1.203027,0.161231 -0.806153,0.16123 -1.897559,0.731738 l -0.07441,3.299023 q -0.02481,2.108399 0.04961,2.790528 0.02481,0.297656 0.111621,0.446484 0.09922,0.148828 0.42168,0.272852 0.322461,0.111621 1.091406,0.198437 l -0.0248,0.384473 q -0.272852,-0.02481 -0.781348,-0.06201 -0.508496,-0.03721 -1.302246,-0.06201 z"
         style="font-style:normal;font-variant:normal;font-weight:normal;font-stretch:normal;font-size:25.4px;font-family:Centaur;-inkscape-font-specification:Centaur;stroke-width:0.264583"
         id="path3097" />
      <path
         d="m 73.350118,50.828051 q 1.761133,0.322461 2.827734,1.054199 1.079004,0.731739 1.500684,1.624707 0.421679,0.880567 0.421679,1.872754 0,2.728516 -2.009179,3.509863 -2.00918,0.781348 -4.105176,0.781348 -0.198437,0 -0.719336,-0.02481 -0.520898,-0.0124 -1.054199,-0.0248 -0.520898,-0.0124 -0.806152,-0.02481 -0.272852,0 -0.620118,0 -0.74414,0 -2.418457,0.09922 V 59.23684 q 0.496094,-0.04961 0.79375,-0.124023 0.297657,-0.08682 0.520899,-0.297657 0.223242,-0.210839 0.285254,-0.570507 0.124023,-0.533301 0.186035,-2.22002 0.07441,-1.686719 0.09922,-3.423047 0.0248,-1.74873 0.0248,-2.703711 0,-1.029394 -0.0248,-1.996777 -0.0248,-0.967383 -0.136426,-1.897559 -0.09922,-0.930175 -0.272852,-1.240234 -0.173632,-0.347265 -0.520898,-0.496094 -0.347266,-0.148828 -0.930176,-0.235644 v -0.483692 q 1.314649,0.09922 2.319238,0.09922 0.235645,0 1.723926,-0.09922 1.5875,-0.111621 1.674317,-0.111621 1.203027,0 2.195214,0.446485 0.992188,0.446484 1.5875,1.339453 0.607715,0.880566 0.607715,2.058789 0,1.252637 -0.768945,2.17041 -0.768945,0.905371 -2.38125,1.37666 z m -3.497461,-1.624707 v 1.525488 q 0.272852,-0.0248 0.63252,-0.0248 1.11621,-0.02481 1.95957,-0.198438 0.843359,-0.173633 1.500683,-0.855762 0.657325,-0.682128 0.657325,-2.095996 0,-1.11621 -0.471289,-1.897558 -0.458887,-0.781348 -1.240235,-1.190625 -0.781347,-0.409277 -1.674316,-0.409277 -0.855762,0 -1.041797,0.198437 -0.161231,0.136426 -0.248047,1.897559 -0.07441,1.74873 -0.07441,3.050976 z m 0,2.108399 v 4.861718 q 0,1.265039 0.04961,1.785938 0.04961,0.520898 0.235645,0.781347 0.186035,0.248047 0.558105,0.297657 0.372071,0.04961 1.314649,0.04961 1.00459,0 1.934765,-0.310059 0.942579,-0.322461 1.5875,-1.116211 0.644922,-0.79375 0.644922,-2.133203 0,-0.74414 -0.285254,-1.525488 -0.285254,-0.781348 -0.855761,-1.389062 -0.570508,-0.620118 -1.513086,-1.00459 -0.930176,-0.396875 -2.17041,-0.396875 -0.297657,0 -0.719336,0.0248 -0.409278,0.02481 -0.781348,0.07442 z"
         style="font-style:normal;font-variant:normal;font-weight:normal;font-stretch:normal;font-size:25.4px;font-family:Centaur;-inkscape-font-specification:Centaur;stroke-width:0.264583"
         id="path3099" />
      <path
         d="m 81.758912,52.279125 -1.525489,0.682129 q -0.09922,-0.396875 -0.09922,-0.58291 0,-0.632519 0.768945,-1.16582 0.781348,-0.545703 1.74873,-0.880567 0.979785,-0.334863 1.364258,-0.334863 0.334863,0 0.830957,0.297656 0.496094,0.297657 0.79375,0.595313 0.260449,0.248047 0.396875,0.496094 0.148828,0.235644 0.260449,0.756543 0.111621,0.520898 0.111621,1.32705 0,0.235645 -0.06201,1.661914 l -0.04961,0.930176 q -0.04961,0.669727 -0.04961,1.066602 0,0.508496 0.136426,1.091406 0.124023,0.595312 0.558105,0.595312 0.483692,0 1.289844,-0.359668 v 0.508497 l -1.823145,0.731738 q -0.545703,0.186035 -0.620117,0.186035 -0.285254,0 -0.570508,-0.37207 -0.272851,-0.384473 -0.446484,-0.905371 -2.294433,1.277441 -3.522265,1.277441 -0.756543,0 -1.141016,-0.434082 -0.384473,-0.446484 -0.384473,-1.327051 0,-0.843359 0.198438,-1.252637 0.21084,-0.409277 0.669726,-0.644921 0.930176,-0.471289 1.971973,-0.694532 1.041797,-0.235644 2.182812,-0.396875 l 0.06201,-1.525488 v -0.409277 q 0,-1.054199 -0.607715,-1.661914 -0.595312,-0.620117 -1.401465,-0.620117 -0.384472,0 -0.781347,0.223242 -0.384473,0.21084 -0.384473,0.607715 0,0.198437 0.124024,0.5333 z m 2.939355,5.866309 q -0.03721,-0.409278 0.07441,-2.331641 -1.637109,-0.111621 -2.629297,0.396875 -0.992187,0.508496 -0.992187,1.277442 0,0.558105 0.297656,1.054199 0.310059,0.496094 0.843359,0.496094 0.595313,0 2.406055,-0.892969 z"
         style="font-style:normal;font-variant:normal;font-weight:normal;font-stretch:normal;font-size:25.4px;font-family:Centaur;-inkscape-font-specification:Centaur;stroke-width:0.264583"
         id="path3101" />
      <path
         d="m 90.031269,56.037035 0.06201,-4.824511 q -0.570508,-0.07441 -1.327051,-0.07441 0.0248,-0.09922 0.0248,-0.310059 1.079004,-0.657324 1.686719,-1.252637 0.607715,-0.595312 1.438672,-1.686718 l -0.124023,2.232422 q 1.066601,0.09922 2.33164,0.09922 0.607715,0 1.327051,-0.0248 l -0.02481,0.768945 q -0.644922,0.07441 -1.327051,0.07441 -0.06201,0 -0.483691,-0.0124 -0.42168,-0.02481 -1.314648,-0.06201 -0.235645,0 -0.359668,0.04961 -0.111621,0.03721 -0.161231,0.161231 -0.03721,0.124023 -0.06201,0.471289 -0.0124,0.347265 -0.02481,0.731738 l -0.06201,3.869531 q -0.02481,1.116211 0.248047,1.847949 0.285254,0.719336 1.351855,0.719336 0.409278,0 1.00459,-0.173632 0.607715,-0.186036 1.389063,-0.545704 0.0248,0.09922 0.0248,0.148829 0.0124,0.04961 0.02481,0.111621 -0.434082,0.471289 -1.599902,0.930175 -1.153418,0.458887 -2.083594,0.458887 -0.806152,0 -1.389062,-0.545703 -0.570508,-0.558105 -0.570508,-1.909961 z"
         style="font-style:normal;font-variant:normal;font-weight:normal;font-stretch:normal;font-size:25.4px;font-family:Centaur;-inkscape-font-specification:Centaur;stroke-width:0.264583"
         id="path3103" />
      <path
         d="m 96.108419,44.502856 v -0.471289 q 0.272851,-0.136426 0.359668,-0.186035 l 2.406054,-1.165821 0.409278,-0.223242 0.409277,0.198438 q -0.235644,1.116211 -0.334863,2.579687 -0.09922,1.451074 -0.148828,3.695899 l -0.07441,2.517675 q 1.463479,-0.632519 2.368849,-0.930175 0.91777,-0.297657 1.76113,-0.297657 1.19063,0 1.73633,0.731739 0.5457,0.719335 0.66973,1.773535 0.13642,1.041797 0.13642,2.75332 0,0.334863 -0.0124,0.620117 0,0.285254 -0.0124,0.806152 -0.0124,0.508497 -0.0372,0.942579 -0.0124,0.421679 -0.0124,0.483691 0,0.533301 0.26045,0.706934 0.26045,0.173632 1.43867,0.173632 l -0.0248,0.384473 h -0.80615 q -0.18603,0 -1.53789,0.0124 -1.33945,0.0124 -1.37666,0.0124 -0.0372,0 -0.5457,0.124023 -0.12403,0 -0.12403,-0.173633 0,-0.124023 0.19844,-0.173632 0.47129,-0.111622 0.69453,-0.396875 0.23565,-0.285254 0.31006,-0.967383 0.0868,-0.682129 0.0868,-2.244824 0,-2.468067 -0.39688,-3.522266 -0.39687,-1.054199 -1.81074,-1.054199 -0.73174,0 -1.6123,0.272851 -0.88057,0.272852 -1.30225,0.496094 0,0.347266 -0.04961,1.16582 l -0.111621,2.988965 q 0,0.285254 -0.0124,0.520899 0,0.235644 -0.0124,0.520898 0,1.203027 0.16123,1.550293 0.06201,0.21084 0.297657,0.297656 0.235644,0.07441 1.252638,0.161231 v 0.434082 q -0.40928,-0.04961 -1.73633,-0.04961 -1.37666,0 -2.96416,0.124024 l 0.0248,-0.409278 q 0.79375,-0.16123 1.041797,-0.310058 0.260449,-0.161231 0.347265,-0.595313 0.09922,-0.434082 0.136426,-1.624707 0.03721,-1.947168 0.09922,-3.33623 l 0.04961,-3.472656 q 0.02481,-0.533301 0.02481,-2.368848 0,-1.674316 -0.148828,-2.468066 -0.136426,-0.806153 -0.694532,-0.806153 -0.08682,0 -0.781347,0.198438 z"
         style="font-style:normal;font-variant:normal;font-weight:normal;font-stretch:normal;font-size:25.4px;font-family:Centaur;-inkscape-font-specification:Centaur;stroke-width:0.264583"
         id="path3105" />
    </g>
  </g>
</svg>
